<svg xmlns="http://www.w3.org/2000/svg" width="19.101" height="19.101" viewBox="0 0 19.101 19.101">
  <g id="icon_scanner" transform="translate(0.083 0.083)">
    <line id="Line_56" data-name="Line 56" x2="7.083" transform="translate(5.926 15.369)" fill="none" stroke="#fff" stroke-linecap="round" stroke-linejoin="round" stroke-width="1"/>
    <line id="Line_57" data-name="Line 57" x2="7.083" transform="translate(5.926 13.008)" fill="none" stroke="#fff" stroke-linecap="round" stroke-linejoin="round" stroke-width="1"/>
    <g id="Group_205" data-name="Group 205" transform="translate(0.417 0.417)">
      <g id="Group_207" data-name="Group 207">
        <path id="Path_894" data-name="Path 894" d="M4.435,14.37H2.074A1.579,1.579,0,0,1,.5,12.8V8.074A1.579,1.579,0,0,1,2.074,6.5H17.027A1.579,1.579,0,0,1,18.6,8.074V12.8a1.579,1.579,0,0,1-1.574,1.574H14.666" transform="translate(-0.5 -1.778)" fill="none" stroke="#fff" stroke-linecap="round" stroke-linejoin="round" stroke-width="1"/>
        <path id="Path_895" data-name="Path 895" d="M5.5,3.648V.5h7.544A.786.786,0,0,1,13.6.731l1.9,1.9a.786.786,0,0,1,.231.556v.461" transform="translate(-1.565 -0.5)" fill="none" stroke="#fff" stroke-linecap="round" stroke-linejoin="round" stroke-width="1"/>
        <path id="Path_896" data-name="Path 896" d="M15.731,20.583a.787.787,0,0,1-.787.787H6.287a.787.787,0,0,1-.787-.787V13.5H15.731Z" transform="translate(-1.565 -3.269)" fill="none" stroke="#fff" stroke-linecap="round" stroke-linejoin="round" stroke-width="1"/>
        <circle id="Ellipse_36" data-name="Ellipse 36" cx="0.787" cy="0.787" r="0.787" transform="translate(1.574 6.296)" fill="none" stroke="#fff" stroke-linecap="round" stroke-linejoin="round" stroke-width="1"/>
        <path id="Path_897" data-name="Path 897" d="M14.5.5V3.648h3.148" transform="translate(-3.482 -0.5)" fill="none" stroke="#fff" stroke-linecap="round" stroke-linejoin="round" stroke-width="1"/>
      </g>
    </g>
  </g>
</svg>
