<svg xmlns="http://www.w3.org/2000/svg" width="20.093" height="18" viewBox="0 0 20.093 18">
  <g id="Glyph" transform="translate(-3522.5 -7064.999)">
    <g id="Group_6" data-name="Group 6" transform="translate(3392.565 6964.042)">
      <path id="Path_8" data-name="Path 8" d="M139.481,103.328v-.033c-1.2-1.263-4.65-2.207-8.608-2.338a.888.888,0,0,0-.661.267.97.97,0,0,0-.277.682v13.763a.932.932,0,0,0,.882.949c3.981.124,7.458,1.07,8.664,2.339V103.328Z" fill="#666"/>
      <path id="Path_9" data-name="Path 9" d="M149.752,101.224a.89.89,0,0,0-.662-.267c-3.958.131-7.407,1.075-8.607,2.338v15.662c1.206-1.269,4.683-2.215,8.664-2.337a.931.931,0,0,0,.881-.949V101.906A.965.965,0,0,0,149.752,101.224Z" fill="#666"/>
    </g>
  </g>
</svg>
