<svg xmlns="http://www.w3.org/2000/svg" width="255.568" height="49.075" viewBox="0 0 255.568 49.075">
  <g id="Group_76" data-name="Group 76" transform="translate(-6.5 -8.061)">
    <g id="Group_74" data-name="Group 74" transform="translate(81.448 20.486)">
      <path id="Path_114" data-name="Path 114" d="M117.219,33.606l1.976,8.583c.278,1.174.432,2.161.617,3.088h.062c.154-.834.4-1.976.648-3.057l1.76-8.614h2.347l-2.439,9.6c-.926,3.766-1.945,7.379-3.705,9.632a8.207,8.207,0,0,1-2.686,2.285l-.864-2.038a7.22,7.22,0,0,0,2.1-1.883,9.14,9.14,0,0,0,1.359-2.5,2.091,2.091,0,0,0,.154-.741,1.709,1.709,0,0,0-.062-.556l-3.766-13.8Z" transform="translate(-114.718 -27.184)" fill="#323234"/>
      <path id="Path_115" data-name="Path 115" d="M133.169,37.329c0-1.759-.093-2.655-.124-3.859h2.069l.124,1.79h.061a3.793,3.793,0,0,1,3.427-2.038c2.069,0,3.613,1.544,3.613,5.156V48.413h-2.378V38.78c0-1.759-.339-3.551-2.069-3.551-.988,0-1.945.834-2.254,2.44A8.356,8.356,0,0,0,135.546,39v9.417h-2.377Z" transform="translate(-121.22 -27.048)" fill="#323234"/>
      <path id="Path_116" data-name="Path 116" d="M158.039,48.413l-.154-1.575h-.093a3.354,3.354,0,0,1-2.963,1.822c-2.007,0-3.551-1.7-3.551-4.261,0-3.736,2.994-5.4,6.36-5.434V38.5c0-2.007-.494-3.4-2.378-3.4a4.5,4.5,0,0,0-2.47.772l-.525-1.667a6.428,6.428,0,0,1,3.489-.988c3,0,4.291,1.976,4.291,5.341v6.453a23.609,23.609,0,0,0,.155,3.4Zm-.339-7.719c-1.235,0-4.107.216-4.107,3.458,0,1.945.988,2.656,1.822,2.656,1.05,0,1.945-.772,2.223-2.254a3.921,3.921,0,0,0,.062-.834Z" transform="translate(-127.689 -27.048)" fill="#323234"/>
      <path id="Path_117" data-name="Path 117" d="M169.968,37.329c0-1.759-.093-2.655-.123-3.859h2.069l.123,1.852h.062a3.75,3.75,0,0,1,3.365-2.1,3.116,3.116,0,0,1,3.119,2.285h.061a4.759,4.759,0,0,1,1.482-1.7,3.609,3.609,0,0,1,2.069-.586c2.007,0,3.582,1.482,3.582,5.28v9.91h-2.347V39.058c0-1.945-.277-3.829-2.1-3.829-.988,0-1.852.834-2.192,2.223a9.058,9.058,0,0,0-.093,1.358v9.6H176.7V38.626c0-1.667-.309-3.4-2.069-3.4-.957,0-1.945.834-2.223,2.409a8.515,8.515,0,0,0-.092,1.3v9.479h-2.347Z" transform="translate(-134.277 -27.048)" fill="#323234"/>
      <path id="Path_118" data-name="Path 118" d="M202.132,26.775a1.389,1.389,0,0,1-1.451,1.544,1.4,1.4,0,0,1-1.359-1.544,1.425,1.425,0,0,1,1.389-1.543A1.4,1.4,0,0,1,202.132,26.775Zm-2.563,18.8V30.635h2.377V45.578Z" transform="translate(-144.735 -24.213)" fill="#323234"/>
      <path id="Path_119" data-name="Path 119" d="M215.44,48.06a5.13,5.13,0,0,1-2.47.556c-3.273,0-5.464-2.624-5.464-7.564,0-4.291,2.161-7.78,5.9-7.78a4.8,4.8,0,0,1,2.1.463l-.463,1.945a3.877,3.877,0,0,0-1.7-.4c-2.378,0-3.458,2.84-3.458,5.773,0,3.489,1.328,5.589,3.52,5.589a4.062,4.062,0,0,0,1.729-.4Z" transform="translate(-147.638 -27.065)" fill="#323234"/>
      <path id="Path_120" data-name="Path 120" d="M231.186,45.323l-4.013-20.809h2.47L231.4,34.548c.432,2.624.772,4.94,1.019,7.5h.124c.247-2.625.741-4.878,1.235-7.533l1.914-10h2.038l1.914,9.787c.463,2.47.926,4.847,1.2,7.75h.094c.339-3,.71-5.249,1.112-7.626l1.729-9.91H246.1l-4.043,20.809h-2.316L237.732,35.2c-.4-2.192-.8-4.539-1.05-6.824h-.062c-.308,2.347-.648,4.6-1.142,6.916L233.41,45.323Z" transform="translate(-154.616 -23.958)" fill="#323234"/>
      <path id="Path_121" data-name="Path 121" d="M259.636,41.158c.031,4.569,1.822,5.557,3.551,5.557a5.031,5.031,0,0,0,2.471-.586l.37,1.759a7.2,7.2,0,0,1-3.273.71c-3.581,0-5.433-2.933-5.433-7.5,0-4.847,2.038-7.873,5.032-7.873,3.057,0,4.261,3.211,4.261,6.607,0,.556,0,.957-.031,1.328Zm4.693-1.76c.062-2.994-1.081-4.322-2.223-4.322-1.544,0-2.347,2.285-2.44,4.322Z" transform="translate(-165.312 -27.048)" fill="#323234"/>
      <path id="Path_122" data-name="Path 122" d="M275.456,45.018c.031-.865.124-2.563.124-3.582V23.653h2.377v8.181h.062a3.336,3.336,0,0,1,3.149-2.007c2.316,0,4.075,2.686,4.075,7.564,0,5.4-2.223,7.873-4.538,7.873a3.124,3.124,0,0,1-2.964-2.192h-.092l-.154,1.945Zm2.5-5.28a2.847,2.847,0,0,0,.093.927c.556,2.223,1.574,2.624,2.223,2.624,1.914,0,2.594-2.593,2.594-5.773,0-3-.71-5.65-2.625-5.65-1.111,0-2.038,1.389-2.223,2.655a5.979,5.979,0,0,0-.062,1.05Z" transform="translate(-171.747 -23.653)" fill="#323234"/>
      <path id="Path_123" data-name="Path 123" d="M302.607,26.644h-3.8v-2.13h9.972v2.13h-3.8V45.323h-2.377Z" transform="translate(-180.032 -23.958)" fill="#323234"/>
      <path id="Path_124" data-name="Path 124" d="M320.623,45.323,316.61,24.514h2.47l1.759,10.034c.432,2.624.772,4.94,1.019,7.5h.124c.247-2.625.741-4.878,1.235-7.533l1.914-10h2.038l1.914,9.787c.463,2.47.926,4.847,1.2,7.75h.092c.34-3,.71-5.249,1.112-7.626l1.729-9.91h2.316l-4.045,20.809h-2.316L327.169,35.2c-.4-2.192-.8-4.539-1.05-6.824h-.062c-.308,2.347-.648,4.6-1.142,6.916l-2.069,10.034Z" transform="translate(-186.348 -23.958)" fill="#323234"/>
      <path id="Path_125" data-name="Path 125" d="M349.665,39.087l-1.389,6.237h-2.285l4.755-20.809h2.624L358,45.323h-2.347l-1.389-6.237Zm4.291-1.914-1.081-5.28c-.308-1.481-.586-3.211-.834-4.755h-.123c-.247,1.575-.556,3.365-.834,4.755L350,37.172Z" transform="translate(-196.772 -23.958)" fill="#323234"/>
      <path id="Path_126" data-name="Path 126" d="M371,24.514V45.323h-2.378V24.514Z" transform="translate(-204.802 -23.958)" fill="#323234"/>
      <path id="Path_127" data-name="Path 127" d="M378.149,45.323V24.514H380.4l3.828,9.756c.865,2.223,1.945,5,2.656,7.255h.061c-.185-3.272-.277-5.958-.277-9.571V24.514h2.13V45.323h-2.254l-3.952-10a74.672,74.672,0,0,1-2.47-7.07h-.061c.185,2.779.246,5.434.246,9.879v7.194Z" transform="translate(-208.181 -23.958)" fill="#323234"/>
    </g>
    <path id="Path_128" data-name="Path 128" d="M92.695,44.941V22.986h5.733c4.124,0,6.128,2.052,6.128,6.274v9.407c0,4.222-2,6.274-6.128,6.274Zm2.181-2.161h3.552a3.6,3.6,0,0,0,3.947-3.721V28.868a3.6,3.6,0,0,0-3.947-3.721H94.876Z" transform="translate(-25.457 -1.977)" fill="#323234"/>
    <g id="Group_75" data-name="Group 75" transform="translate(6.5 8.061)">
      <rect id="Rectangle_98" data-name="Rectangle 98" width="49.075" height="49.075" rx="6" fill="#f6770e"/>
    </g>
    <path id="Path_129" data-name="Path 129" d="M35.325,37.093s1.9,8.619,2.035,9.9h.108c.189-1.282.488-2.751.758-3.979L39.6,37.093h2.14l1.3,5.761c.3,1.469.569,2.777.759,4.139h.081c.108-1.309,2.134-9.9,2.134-9.9h2.567L44.971,50.011H42.534L41.314,44.7c-.3-1.255-.75-3.949-.75-3.949h0a33.82,33.82,0,0,1-.766,3.975l-1.327,5.287H36.006L32.758,37.093Z" transform="translate(-6.769 -7.646)" fill="#fff"/>
    <path id="Path_130" data-name="Path 130" d="M60.017,46.885a1.014,1.014,0,0,1-1.075-1.058V38.2H60.86V36.071H58.941v-2.95a3.911,3.911,0,0,1-.887.635,4.2,4.2,0,0,1-1.694.425v1.891h-1.72V38.2h1.72v8.049c0,1.9,1.225,2.964,3.226,2.964a4.359,4.359,0,0,0,1.289-.139v-2.19Z" transform="translate(-12.41 -6.622)" fill="#fff"/>
    <path id="Union_1" data-name="Union 1" d="M0,0H5.456c3.7,0,5.82,1.741,5.82,5.954v8.662c0,4.213-2.123,5.954-5.82,5.954H0ZM2.364,18.224H5.456a3.141,3.141,0,0,0,3.456-3.248V5.593A3.141,3.141,0,0,0,5.456,2.345H2.364Z" transform="translate(14.003 21.795)" fill="#fff"/>
  </g>
</svg>
