<svg xmlns="http://www.w3.org/2000/svg" width="288.024" height="183.87" viewBox="0 0 288.024 183.87">
  <g id="Group_81" data-name="Group 81" transform="translate(-43.5 -114.731)">
    <g id="Group_78" data-name="Group 78" transform="translate(-197.688 -62.903)">
      <g id="Layer_3" data-name="Layer 3" transform="translate(245.99 166.728)">
        <path id="Path_133" data-name="Path 133" d="M686.159,591.765a274.313,274.313,0,0,0-36.768,20.645l32.9-.347,2.96-10.744c.895-3.246,1.8-6.615,1.27-9.941" transform="translate(-500.053 -431.352)" fill="#fff" stroke="#000" stroke-miterlimit="10" stroke-width="1"/>
        <g id="Layer_5" data-name="Layer 5" transform="translate(135.186 163.514)">
          <path id="Path_134" data-name="Path 134" d="M642.681,611.056a2.019,2.019,0,0,1,1.554,1.531,1.38,1.38,0,0,1-.567,1.321,2.969,2.969,0,0,1-1.41.51,25.343,25.343,0,0,1-3.857.011c-4.407-.047-8.655,1.59-12.626,3.5a24.976,24.976,0,0,1-3.884,1.641c-2.608.748-7.24.554-9.942.3l-.113.031c.822-3.826,2.006-7.564,3.188-11.3a8.326,8.326,0,0,1,1.514-3.218l.3-.176c2.953-1.058,12.762-3.954,13.822-4.188,4.676-1.031,10.368.1,14.825,1.85,1.844.724,4.252,2.437,4.252,3.032a.677.677,0,0,1-.578.6,2.041,2.041,0,0,1-.894-.1,33.6,33.6,0,0,0-13.836-.69,33.255,33.255,0,0,1,11.6.187,4.166,4.166,0,0,1,1.869,1.222,1.218,1.218,0,0,1,.008,1.477c-.472.506-1.3.305-1.961.11-4.366-1.283-9.039-.583-13.535.127a29.522,29.522,0,0,1,13.381-.171c.485.1.488.621.635,1.092a1.152,1.152,0,0,1-.386,1.32,1.523,1.523,0,0,1-.73.17,31.724,31.724,0,0,1-4.66-.481c-4.112-.423-8.2.785-12.119,2.107C628.53,612.879,636.032,609.61,642.681,611.056Z" transform="translate(-611.836 -600.633)" fill="#fff" stroke="#000" stroke-miterlimit="10" stroke-width="1"/>
        </g>
        <path id="Path_135" data-name="Path 135" d="M492.47,370.429c8.893,3.767,15.017,12.146,19.571,20.663s7.775,13.942,12.572,22.324c3.11,5.436,5.847,10.689,11.175,13.918.193.117,9.664,4.9,9.819,5.069l-13.435,20.942c-13.171-5.269-27.239-16.251-33.317-27.179l.47-3.5a155.769,155.769,0,0,1-6.6,28.635c-.02.32-3.659,1.75-5.211,2.988a5.033,5.033,0,0,0-1.412,2.7l-3.933,13.945a243.986,243.986,0,0,1-33.078-2.188c-12.846-1.733-26.44-4.977-35.193-14.537-5.858-6.4-8.855-15.012-9.837-23.63s-.093-16.2.966-24.812c1.062-8.635,2.391-13.755,6.918-21.184a47.29,47.29,0,0,1,9.451-10.714,88.361,88.361,0,0,1,27.923-16.524l-.116.255a38.208,38.208,0,0,0,12.929,15.643c.484.338,1.328,1.8,1.834,1.493.31-.186.768-1.12,1.026-1.373,4.086-3.992,6.846-10.393,9.629-15.837C474.621,357.528,484.712,367.143,492.47,370.429Z" transform="translate(-346.909 -285.514)" fill="#fe8e14" stroke="#000" stroke-miterlimit="10" stroke-width="1"/>
        <path id="Path_136" data-name="Path 136" d="M658.2,494.835s2.568,7.966,2.252,12.345c-.4,5.513,4.268,14.756,4.268,14.756l-8.536-9.691Z" transform="translate(-504.289 -371.19)" fill="#fc751a"/>
        <path id="Path_137" data-name="Path 137" d="M491.157,471.622s-1.534,28.765,3.653,40.754C494.991,512.792,475.6,503.021,491.157,471.622Z" transform="translate(-397.679 -356.725)" fill="#fc751a"/>
        <path id="Path_138" data-name="Path 138" d="M490.917,471.622c-3.191,4.455-4.533,9.955-5.422,15.362-.95,5.77-1.416,10.792.98,16.126,2.134,4.749,6.3,8.284,10.726,11.032a57,57,0,0,0,42.417,7.036l-2.6,6.023" transform="translate(-397.439 -356.725)" fill="none" stroke="#000" stroke-miterlimit="10" stroke-width="1"/>
        <path id="Path_139" data-name="Path 139" d="M646.726,494.835c-.712,14.875-3.146,28.5-8.464,42.414" transform="translate(-493.118 -371.19)" fill="none" stroke="#000" stroke-miterlimit="10" stroke-width="1"/>
        <g id="Messages-Chat-Smileys_Messages-Speech-Bubbles_messages-bubble-typing-1" data-name="Messages-Chat-Smileys / Messages-Speech-Bubbles / messages-bubble-typing-1" transform="translate(220.308 27.115)">
          <g id="Group_114" data-name="Group 114">
            <g id="messages-bubble-typing_1" data-name="messages-bubble-typing 1">
              <path id="Shape_448" data-name="Shape 448" d="M841.38,216.44c-11.45,0-20.733,7.668-20.733,17.127a15.755,15.755,0,0,0,6.13,12.154L822.45,256.1l11.488-6.565a24.536,24.536,0,0,0,7.443,1.156c11.45,0,20.733-7.668,20.733-17.128S852.83,216.44,841.38,216.44Z" transform="translate(-820.647 -216.44)" fill="#6ac4bb" stroke="#323234" stroke-miterlimit="10" stroke-width="1"/>
              <path id="Oval_81" data-name="Oval 81" d="M839,253.142a2.7,2.7,0,1,0-2.7-2.7A2.7,2.7,0,0,0,839,253.142Z" transform="translate(-829.085 -233.308)" fill="#fff" stroke="#323234" stroke-miterlimit="10" stroke-width="1"/>
              <path id="Oval_82" data-name="Oval 82" d="M862.471,253.142a2.7,2.7,0,1,0-2.7-2.7A2.7,2.7,0,0,0,862.471,253.142Z" transform="translate(-841.734 -233.308)" fill="#fff" stroke="#323234" stroke-miterlimit="10" stroke-width="1"/>
              <path id="Oval_83" data-name="Oval 83" d="M885.938,253.142a2.7,2.7,0,1,0-2.7-2.7A2.7,2.7,0,0,0,885.938,253.142Z" transform="translate(-854.384 -233.308)" fill="#fff" stroke="#323234" stroke-miterlimit="10" stroke-width="1"/>
            </g>
          </g>
        </g>
        <g id="Emails_Email-Actions_email-action-unread" data-name="Emails / Email-Actions / email-action-unread" transform="translate(2 44.947)">
          <g id="Group_82" data-name="Group 82">
            <g id="email-action-unread">
              <path id="Rectangle-path_27" data-name="Rectangle-path 27" d="M253.1,169.837a3.109,3.109,0,0,1,3.109-3.109H285.75a3.109,3.109,0,0,1,3.109,3.109v18.655a3.109,3.109,0,0,1-3.109,3.109H256.213a3.109,3.109,0,0,1-3.109-3.109Z" transform="translate(-253.104 -166.728)" fill="#fe8e14" stroke="#000" stroke-miterlimit="10" stroke-width="1"/>
              <path id="Shape_381" data-name="Shape 381" d="M289.457,169.129,272.5,182.992l-16.962-13.863" transform="translate(-254.618 -168.224)" fill="#fe8e14" stroke="#000" stroke-miterlimit="10" stroke-width="1"/>
            </g>
          </g>
        </g>
      </g>
      <g id="Layer_2" data-name="Layer 2" transform="translate(303.326 178.269)">
        <path id="Path_140" data-name="Path 140" d="M514.268,253.067c3.584-6.443,2.463-14.55,5.259-21.372a20.314,20.314,0,0,1,21.679-11.918c4.6.82,9.407,3.249,13.687,1.371a7.411,7.411,0,0,0,.765-13.182c-3.612-2.114-8.232-.867-12.305-1.825-4.981-1.172-8.6-5.474-13.3-7.517a15.634,15.634,0,0,0-21.8,12.83c-.232,2.4.088,4.863-.513,7.2-.969,3.758-4.27,7.093-3.518,10.9.568,2.877,3.371,5.006,3.642,7.926.115,1.234-.247,2.476-.136,3.71.423,4.7,7.256,7.439,6.5,12.1" transform="translate(-466.859 -197.354)" stroke="#000" stroke-miterlimit="10" stroke-width="1"/>
        <g id="Layer_7" data-name="Layer 7" transform="translate(53.114 47.54)">
          <path id="Path_141" data-name="Path 141" d="M546.2,323.508s1.464,14.425,16.391,12.065c-.79-.626-1.8-4.149-1.8-4.149S553.212,330.972,546.2,323.508Z" transform="translate(-546.197 -323.508)" fill="#ddd"/>
        </g>
        <path id="Path_142" data-name="Path 142" d="M547.637,292.691c3.195,2.948,6.538,5.983,10.693,7.261s9.365.241,11.557-3.512a26.115,26.115,0,0,0,1.789-5.165c.572-1.735,1.568-3.5,3.263-4.183.22-.088.478-.185.551-.412a.739.739,0,0,0-.036-.424c-1.19-4.14-3.818-5.289-3.569-12.42" transform="translate(-493.981 -245.014)" fill="none" stroke="#000" stroke-miterlimit="10" stroke-width="1"/>
        <path id="Path_143" data-name="Path 143" d="M583.32,276.6c3.059-1.115,3.4-1.115,6.118-.558" transform="translate(-516.217 -246.159)" fill="none" stroke="#000" stroke-miterlimit="10" stroke-width="2"/>
        <path id="Path_144" data-name="Path 144" d="M552.167,199.73c-1.238.8-11.047,13.7-11.047,21.918" transform="translate(-489.919 -198.835)" fill="none" stroke="#fe8e14" stroke-miterlimit="10" stroke-width="1"/>
        <path id="Path_145" data-name="Path 145" d="M565.252,206.664a39.672,39.672,0,0,0-10.926,18.942" transform="translate(-498.149 -203.156)" fill="none" stroke="#fe8e14" stroke-miterlimit="10" stroke-width="1"/>
        <path id="Path_146" data-name="Path 146" d="M508.071,345.77c-1.524,1.972-1.41,5.234-.38,7.5a20.765,20.765,0,0,0,4.6,5.842l4.76,4.746a2.387,2.387,0,0,1,.51,3.6l-3.014,5.371c-6.456-4.221-20.506-17.052-20.31-17.517a17.07,17.07,0,0,1,2.9-1.78c3.987-2.07,8.956-3.74,10.942-7.769Z" transform="translate(-460.7 -289.841)" fill="#f5f5f5" stroke="#000" stroke-miterlimit="10" stroke-width="1"/>
        <path id="Path_147" data-name="Path 147" d="M572.171,347.226c.239,2.83,7.532,8.816,7.519,9.176-.013.336-5.859,13.447-10.449,17.341-.193.163-.8.781-1.054.747-.2-.027-2.744-3.224-3.875-4.339a1.295,1.295,0,0,1-.208-2c3.464-5.755,9.582-14.418,10.346-17.108A8.252,8.252,0,0,1,572.171,347.226Z" transform="translate(-504.009 -290.748)" fill="#f5f5f5" stroke="#000" stroke-miterlimit="10" stroke-width="1"/>
        <path id="Path_148" data-name="Path 148" d="M623.373,263.441a134.031,134.031,0,0,0-4.3,13.376" transform="translate(-538.495 -238.537)" fill="none" stroke="#000" stroke-miterlimit="10" stroke-width="1"/>
        <ellipse id="Ellipse_24" data-name="Ellipse 24" cx="1.735" cy="1.176" rx="1.735" ry="1.176" transform="translate(79.825 34.399) rotate(-73.565)"/>
        <path id="Path_149" data-name="Path 149" d="M619.418,273.8a3.322,3.322,0,0,1,2.571-.8" transform="translate(-538.711 -244.48)" fill="none" stroke="#000" stroke-miterlimit="10" stroke-width="2"/>
        <circle id="Ellipse_25" data-name="Ellipse 25" cx="2.101" cy="2.101" r="2.101" transform="translate(68.349 33.068)" stroke="#000" stroke-miterlimit="10" stroke-width="1"/>
        <path id="Path_150" data-name="Path 150" d="M592.948,315.375l6.258,2.176s-1.242,5.734-3.1,6.278C593.72,324.528,591.022,320.86,592.948,315.375Z" transform="translate(-521.808 -270.9)" fill="#f5f5f5" stroke="#000" stroke-miterlimit="10" stroke-width="1"/>
        <path id="Path_151" data-name="Path 151" d="M438.585,373.066l2.816,2.718s-43.622,15.117-28.914,84.151c-1.01-1.1-2.371-4.259-3.469-6.366,0,0-8.633-17.281.243-50.431C412.51,391,427.349,378.882,438.585,373.066Z" transform="translate(-405.253 -306.85)" fill="#fc751a"/>
        <g id="Group_79" data-name="Group 79" transform="translate(-492.844 -246.533)">
          <path id="Path_162" data-name="Path 162" d="M548.005,278.125a33.454,33.454,0,0,0,6.208,11.133,18.963,18.963,0,0,0,10.861,6.343c.186.031.416.1.445.284" transform="translate(0 0)" fill="none" stroke="#232323" stroke-miterlimit="10" stroke-width="1"/>
          <circle id="Ellipse_31" data-name="Ellipse 31" cx="2.255" cy="2.255" r="2.255" transform="translate(562.276 293.631)" fill="#323234" stroke="#000" stroke-miterlimit="10" stroke-width="2"/>
        </g>
        <circle id="Ellipse_23" data-name="Ellipse 23" cx="8.969" cy="8.969" r="8.969" transform="translate(45.278 21.535)" stroke="#fe8e14" stroke-miterlimit="10" stroke-width="2"/>
      </g>
      <g id="Layer_4" data-name="Layer 4" transform="translate(427.169 272.826)">
        <path id="Path_152" data-name="Path 152" d="M750.691,452.6c-3.611,6.959-4.771,14.884-6.088,22.612a444.29,444.29,0,0,1-10.717,47.723s58.524-.719,76.826-3.256c.845-.117,1.823.157,2.432-.44a2.835,2.835,0,0,0,.634-1.379q8.822-34.678,16.721-69.583-39.911,2.554-79.874,4.209" transform="translate(-733.886 -448.272)" fill="#fff" stroke="#000" stroke-miterlimit="10" stroke-width="1"/>
      </g>
      <g id="Layer_8" data-name="Layer 8" transform="translate(429.002 254.217)">
        <path id="Path_153" data-name="Path 153" d="M798.89,467.441c-11.877,5.71-19.745-6.256-28.942-2.774-6.356,2.407-8.678,10.32-8.391,17.111.153,3.626.793,7.287.139,10.856-.659,3.6-2.579,6.814-4.3,10.041a105.667,105.667,0,0,0-5.279,11.494,10.6,10.6,0,0,0-1.015,5.563c.683,3.883,5.11,5.848,9.023,6.328A28.8,28.8,0,0,0,774.31,524.2c4.417-1.778,8.406-4.661,13.038-5.761,6.44-1.529,13.152.594,19.274,3.109,4.263,1.751,9.428,3.627,13.16.924a10.992,10.992,0,0,0,2.8-3.347c2.316-3.843,3.9-8.48,2.7-12.8-.916-3.309-3.36-6.071-4.063-9.432-1.2-5.744,2.875-11.083,6.254-15.881s6.271-11.394,2.946-16.23c-1.836-2.67-5.2-3.972-8.439-4.061s-6.329,1.146-9.477,1.914A71.356,71.356,0,0,0,798.89,467.441Z" transform="translate(-746.391 -437.416)" fill="#fff1ea"/>
        <path id="Path_154" data-name="Path 154" d="M738.749,409.39a45.578,45.578,0,0,0,6.331,8.294" transform="translate(-738.749 -405.434)" fill="none" stroke="#000" stroke-miterlimit="10" stroke-width="1"/>
        <path id="Path_155" data-name="Path 155" d="M763.855,402.057a50.534,50.534,0,0,0,3.16,8.305" transform="translate(-754.394 -400.864)" fill="none" stroke="#000" stroke-miterlimit="10" stroke-width="1"/>
        <path id="Path_156" data-name="Path 156" d="M788.332,398.891l-.529,11.848" transform="translate(-769.317 -398.891)" fill="none" stroke="#000" stroke-miterlimit="10" stroke-width="1"/>
        <path id="Path_157" data-name="Path 157" d="M855.283,529.963a6.575,6.575,0,0,0-2.228,4.505A5.457,5.457,0,0,0,855.076,539a4.673,4.673,0,0,0,4.864.513c1.672-.858,2.58-2.7,3.193-4.475a5.784,5.784,0,0,0,.19-4.371c-.878-1.785-3.2-2.344-5.176-2.132A4.441,4.441,0,0,0,855.283,529.963Z" transform="translate(-809.976 -479.654)" fill="none" stroke="#000" stroke-miterlimit="10" stroke-width="1"/>
        <path id="Path_158" data-name="Path 158" d="M996.583,463.974q-1.773,8.151-4.1,16.166" transform="translate(-896.863 -439.448)" fill="none" stroke="#000" stroke-miterlimit="10" stroke-width="1"/>
      </g>
      <g id="Layer_9" data-name="Layer 9" transform="translate(241.687 271.746)">
        <g id="Group_77" data-name="Group 77" transform="translate(0 0)">
          <ellipse id="Ellipse_26" data-name="Ellipse 26" cx="13.104" cy="29.433" rx="13.104" ry="29.433" transform="translate(10.765 9.851) rotate(-22.08)" fill="#6ac4bb" stroke="#323234" stroke-miterlimit="10" stroke-width="1"/>
          <ellipse id="Ellipse_27" data-name="Ellipse 27" cx="13.838" cy="8.713" rx="13.838" ry="8.713" transform="matrix(0.593, -0.805, 0.805, 0.593, 50.529, 41.742)" fill="#6ac4bb" stroke="#323234" stroke-miterlimit="10" stroke-width="1"/>
          <ellipse id="Ellipse_28" data-name="Ellipse 28" cx="11.095" cy="10.956" rx="11.095" ry="10.956" transform="translate(10.197 58.831)" fill="#6ac4bb" stroke="#323234" stroke-miterlimit="10" stroke-width="1"/>
          <path id="Path_159" data-name="Path 159" d="M315.645,524.488c2.367,8.529,11.063,13.88,14.836,21.9a37.984,37.984,0,0,1,2.763,10.566,210.944,210.944,0,0,1,2.35,27.466" transform="translate(-287.775 -494.687)" fill="none" stroke="#323234" stroke-miterlimit="10" stroke-width="1"/>
          <ellipse id="Ellipse_29" data-name="Ellipse 29" cx="3.575" cy="3.53" rx="3.575" ry="3.53" transform="translate(61.707 73.587)" fill="#323234"/>
          <ellipse id="Ellipse_30" data-name="Ellipse 30" cx="3.164" cy="3.125" rx="3.164" ry="3.125" transform="translate(0 39.966)" fill="none" stroke="#323234" stroke-miterlimit="10" stroke-width="1"/>
          <path id="Path_160" data-name="Path 160" d="M384.85,543.81c-5.606,4.168-8.282,11.095-10.131,17.779s-3.233,13.7-7.211,19.412" transform="translate(-320.093 -506.728)" fill="none" stroke="#323234" stroke-miterlimit="10" stroke-width="1"/>
          <path id="Path_161" data-name="Path 161" d="M296.976,631.348c-1.472,1.783-1.308,4.408-.538,6.579s2.057,4.152,2.662,6.374.34,4.922-1.495,6.34" transform="translate(-275.445 -561.278)" fill="none" stroke="#323234" stroke-miterlimit="10" stroke-width="1"/>
        </g>
      </g>
    </g>
    <g id="Phones-Mobile-Devices_Phone_phone-circle" data-name="Phones-Mobile-Devices / Phone / phone-circle" transform="translate(-287.568 26.407)">
      <g id="Group_3" data-name="Group 3" transform="translate(381.572 88.959)">
        <g id="phone-circle">
          <path id="Shape_17" data-name="Shape 17" d="M378.067,97.308a1.483,1.483,0,0,0,.11-2.086l-1.482-1.479a1.481,1.481,0,0,0-2.086.11l-.9.9a2.279,2.279,0,0,0-.425,2.8,29.275,29.275,0,0,0,9.085,9.085,2.28,2.28,0,0,0,2.8-.424l.9-.9a1.481,1.481,0,0,0,.109-2.087l-1.481-1.481a1.481,1.481,0,0,0-2.085.109l-.55.549a29.892,29.892,0,0,1-4.542-4.547Z" transform="translate(-368.764 -89.152)" fill="#6ac4bb" stroke="#323234" stroke-linecap="round" stroke-linejoin="round" stroke-width="1"/>
          <path id="Shape_18" data-name="Shape 18" d="M385.308,105.7c.478.478,1.492,5.26-5.738,5.26a11,11,0,1,1,9.074-4.782" transform="translate(-368.572 -88.959)" fill="none" stroke="#323234" stroke-linecap="round" stroke-linejoin="round" stroke-width="1"/>
        </g>
      </g>
    </g>
  </g>
</svg>
